{"title":"Grantchester S02E01 x264 RB58.mp4","uid":13727153,"size":526110379,"categoryP":"video","categoryS":"tv_shows","magnet":"?xt=urn:btih:09fd83a35d25f6779d4843843b533b02d3f956a0&amp;dn=Grantchester+S02E01+x264+RB58.mp4&amp;tr=udp%3A%2F%2Ftracker.leechers-paradise.org%3A6969&amp;tr=udp%3A%2F%2Fzer0day.ch%3A1337&amp;tr=udp%3A%2F%2Fopen.demonii.com%3A1337&amp;tr=udp%3A%2F%2Ftracker.coppersurfer.tk%3A6969&amp;tr=udp%3A%2F%2Fexodus.desync.com%3A6969","seeders":1,"leechers":0,"uploader":"RedBaron58","files":1,"time":1456972277,"description":"Grantchester S02E01 x264 mp4\r\n \nhttp://www.imdb.com/title/tt3747572/\r\n\r\nTrailer (Series 1):\r\n\r\n\r\nPlease be patient My intial upload speed is limited.\r\nThank you for your kind comments and feedback on my other torrents, your feedback is welcome.\r\n\r\n\r\nAbout the Episode:\r\nThe return of the 1950s-set detective drama about a vicar and a police inspector solving crimes \r\nin rural Cambridgeshire. \r\nDC Phil Wilkinson arrests Sidney on a charge of sexual assault made by Harding Redmond after \r\nreading entries in the diary of his teenage daughter Abigail, who has now gone missing, \r\nalong with the journal itself. \r\nAfter being grilled by DCI Benson, Sidney sets out to prove his innocence and is joined in \r\nhis investigation by Geordie. \r\nStarring James Norton and Robson Green.\r\n\r\n\r\nI hope you enjoy.\r\n\r\n\r\nTechnical:\r\n\r\nGeneral\r\nComplete name                            : G:Grantchester S02E01 x264 RB58.mp4\r\nFormat                                   : MPEG-4\r\nFormat profile                           : Base Media\r\nCodec ID                                 : isom\r\nFile size                                : 502 MiB\r\nDuration                                 : 45mn 59s\r\nOverall bit rate                         : 1 525 Kbps\r\nWriting application                      : Lavf54.63.104\r\n\r\nVideo\r\nID                                       : 1\r\nFormat                                   : AVC\r\nFormat/Info                              : Advanced Video Codec\r\nFormat profile                           :   \r\nFormat settings, CABAC                   : Yes\r\nFormat settings, ReFrames                : 4 frames\r\nCodec ID                                 : avc1\r\nCodec ID/Info                            : Advanced Video Coding\r\nDuration                                 : 45mn 59s\r\nBit rate                                 : 1 400 Kbps\r\nWidth                                    : 832 pixels\r\nHeight                                   : 468 pixels\r\nDisplay aspect ratio                     : 16:9\r\nFrame rate mode                          : Constant\r\nFrame rate                               : 25.000 fps\r\nColor space                              : YUV\r\nChroma subsampling                       : 4:2:0\r\nBit depth                                : 8 bits\r\nScan type                                : Progressive\r\nBits/(Pixel*Frame)                       : 0.144\r\nStream size                              : 460 MiB (92%)\r\nWriting library                          : x264 core 123 r2189 35cf912\r\nEncoding settings                        : cabac=1 / ref=3 / deblock=1:0:0\r\n\r\nAudio\r\nID                                       : 2\r\nFormat                                   : AAC\r\nFormat/Info                              : Advanced Audio Codec\r\nFormat profile                           : LC\r\nCodec ID                                 : 40\r\nDuration                                 : 45mn 58s\r\nBit rate mode                            : Constant\r\nBit rate                                 : 117 Kbps\r\nChannel(s)                               : 2 channels\r\nChannel positions                        : Front: L R\r\nSampling rate                            : 48.0 KHz\r\nCompression mode                         : Lossy\r\nStream size                              : 38.4 MiB (8%)","torrent":{"xt":"urn:btih:09fd83a35d25f6779d4843843b533b02d3f956a0","amp;dn":"Grantchester+S02E01+x264+RB58.mp4","amp;tr":["udp%3A%2F%2Ftracker.leechers-paradise.org%3A6969","udp%3A%2F%2Fzer0day.ch%3A1337","udp%3A%2F%2Fopen.demonii.com%3A1337","udp%3A%2F%2Ftracker.coppersurfer.tk%3A6969","udp%3A%2F%2Fexodus.desync.com%3A6969"],"infoHash":"09fd83a35d25f6779d4843843b533b02d3f956a0","infoHashBuffer":{"type":"Buffer","data":[9,253,131,163,93,37,246,119,157,72,67,132,59,83,59,2,211,249,86,160]},"announce":[],"urlList":[]}}